<svg width="480" height="800" viewBox="0 0 480 800" fill="none" xmlns="http://www.w3.org/2000/svg">
<g clip-path="url(#clip0_16_31)">
<rect width="480" height="800" fill="#B8F2E6"/>
<path d="M554.241 227.334C644.448 278.883 363.318 447.148 380.444 557.498C396.838 663.138 527.181 731.54 461.601 835.328C359.728 996.555 -49.4919 763.113 -100.518 610.668C-157.824 439.457 403.581 141.24 554.241 227.334Z" fill="#AED9E0" fill-opacity="0.6"/>
<path d="M34.0559 357.407C149.67 338.054 202.98 430.581 300.793 495.294C394.431 557.246 500.556 567.585 523.074 677.72C558.053 848.805 271.019 926.327 112.615 853.434C-65.2859 771.568 -159.038 389.73 34.0559 357.407Z" fill="#B8F2E6" fill-opacity="0.6"/>
<path d="M-60.8803 425.184C45.0829 407.486 93.9432 492.097 183.592 551.275C269.413 607.926 366.68 617.38 387.318 718.093C419.377 874.542 156.303 945.432 11.1217 878.775C-151.93 803.913 -237.856 454.742 -60.8803 425.184Z" fill="#AED9E0" fill-opacity="0.8"/>
<path d="M-127.88 450.184C-21.9171 432.486 26.9432 517.097 116.592 576.275C202.413 632.926 299.68 642.38 320.318 743.093C352.377 899.542 89.3031 970.432 -55.8783 903.775C-218.93 828.913 -304.856 479.742 -127.88 450.184Z" stroke="#43A3B1" stroke-opacity="0.6"/>
<path d="M-111.241 614.463C-201.448 562.915 79.6819 394.65 62.5565 284.3C46.162 178.66 -84.1807 110.258 -18.601 6.46959C83.2716 -154.757 492.492 78.6844 543.518 231.13C600.824 402.34 39.4187 700.558 -111.241 614.463Z" fill="#AED9E0" fill-opacity="0.6"/>
<path d="M408.944 484.391C293.33 503.744 240.02 411.217 142.207 346.504C48.5689 284.552 -57.5561 274.213 -80.0737 164.078C-115.053 -7.00756 171.981 -84.5294 330.385 -11.6361C508.286 70.2296 602.038 452.067 408.944 484.391Z" fill="#B8F2E6" fill-opacity="0.6"/>
<path d="M503.88 416.614C397.917 434.311 349.057 349.7 259.408 290.523C173.587 233.872 76.32 224.417 55.682 123.705C23.6226 -32.7446 286.697 -103.634 431.878 -36.9771C594.93 37.8848 680.856 387.056 503.88 416.614Z" fill="#AED9E0" fill-opacity="0.8"/>
<path d="M570.88 391.614C464.917 409.311 416.057 324.7 326.408 265.523C240.587 208.872 143.32 199.417 122.682 98.7045C90.6226 -57.7446 353.697 -128.634 498.878 -61.9771C661.93 12.8848 747.856 362.056 570.88 391.614Z" stroke="#43A3B1" stroke-opacity="0.6"/>
<g filter="url(#filter0_d_16_31)">
<path d="M-1 197C-1 180.431 12.4315 167 29 167H449C465.569 167 479 180.431 479 197V800H-1V197Z" fill="#F6F5F5"/>
</g>
<path d="M43 210.602C43 205.876 46.8307 202.045 51.5561 202.045H434.444C439.169 202.045 443 205.876 443 210.602V319.399C443 324.125 439.169 327.955 434.444 327.955H51.5562C46.8307 327.955 43 324.125 43 319.399V210.602Z" fill="#E2DFDF"/>
<path d="M43.5348 210.602C43.5348 206.172 47.1261 202.58 51.5561 202.58H434.444C438.874 202.58 442.465 206.172 442.465 210.602V319.399C442.465 323.829 438.874 327.421 434.444 327.421H51.5562C47.1261 327.421 43.5348 323.829 43.5348 319.399V210.602Z" stroke="black" stroke-opacity="0.2" stroke-width="1.06952"/>
<path d="M443 461.354C443 466.079 439.169 469.91 434.444 469.91L51.5562 469.91C46.8307 469.91 43 466.079 43 461.354V352.556C43 347.831 46.8307 344 51.5562 344L434.444 344C439.169 344 443 347.831 443 352.556V461.354Z" fill="#E2DFDF"/>
<path d="M442.465 461.354C442.465 465.784 438.874 469.375 434.444 469.375L51.5562 469.375C47.1261 469.375 43.5348 465.784 43.5348 461.354V352.556C43.5348 348.126 47.1261 344.535 51.5562 344.535L434.444 344.535C438.874 344.535 442.465 348.126 442.465 352.556V461.354Z" stroke="black" stroke-opacity="0.2" stroke-width="1.06952"/>
<circle cx="227" cy="68" r="52" fill="white"/>
<circle cx="227" cy="68" r="52" fill="white"/>
<path d="M443 543.444C443 548.169 439.169 552 434.444 552H51.5562C46.8307 552 43 548.169 43 543.444V494.556C43 489.831 46.8307 486 51.5562 486L434.444 486C439.169 486 443 489.831 443 494.556V543.444Z" fill="#E2DFDF"/>
<path d="M442.465 543.444C442.465 547.874 438.874 551.465 434.444 551.465H51.5562C47.1261 551.465 43.5348 547.874 43.5348 543.444V494.556C43.5348 490.126 47.1261 486.535 51.5562 486.535L434.444 486.535C438.874 486.535 442.465 490.126 442.465 494.556V543.444Z" stroke="black" stroke-opacity="0.2" stroke-width="1.06952"/>
<path d="M306 625.444C306 630.169 302.169 634 297.444 634H51.5561C46.8307 634 43 630.169 43 625.444V576.556C43 571.831 46.8307 568 51.5562 568H297.444C302.169 568 306 571.831 306 576.556V625.444Z" fill="#E2DFDF"/>
<path d="M305.465 625.444C305.465 629.874 301.874 633.465 297.444 633.465H51.5561C47.1261 633.465 43.5348 629.874 43.5348 625.444V576.556C43.5348 572.126 47.1261 568.535 51.5562 568.535H297.444C301.874 568.535 305.465 572.126 305.465 576.556V625.444Z" stroke="black" stroke-opacity="0.2" stroke-width="1.06952"/>
<path d="M189 581C189 576.582 192.582 573 197 573H291C295.418 573 299 576.582 299 581V621C299 625.418 295.418 629 291 629H197C192.582 629 189 625.418 189 621V581Z" fill="#E2DFDF"/>
<path d="M197 574.07H291V571.93H197V574.07ZM297.93 581V621H300.07V581H297.93ZM291 627.93H197V630.07H291V627.93ZM190.07 621V581H187.93V621H190.07ZM197 627.93C193.173 627.93 190.07 624.827 190.07 621H187.93C187.93 626.009 191.991 630.07 197 630.07V627.93ZM297.93 621C297.93 624.827 294.827 627.93 291 627.93V630.07C296.009 630.07 300.07 626.009 300.07 621H297.93ZM291 574.07C294.827 574.07 297.93 577.173 297.93 581H300.07C300.07 575.991 296.009 571.93 291 571.93V574.07ZM197 571.93C191.991 571.93 187.93 575.991 187.93 581H190.07C190.07 577.173 193.173 574.07 197 574.07V571.93Z" fill="black" fill-opacity="0.2"/>
</g>
<defs>
<filter id="filter0_d_16_31" x="-5" y="167" width="488" height="641" filterUnits="userSpaceOnUse" color-interpolation-filters="sRGB">
<feFlood flood-opacity="0" result="BackgroundImageFix"/>
<feColorMatrix in="SourceAlpha" type="matrix" values="0 0 0 0 0 0 0 0 0 0 0 0 0 0 0 0 0 0 127 0" result="hardAlpha"/>
<feOffset dy="4"/>
<feGaussianBlur stdDeviation="2"/>
<feComposite in2="hardAlpha" operator="out"/>
<feColorMatrix type="matrix" values="0 0 0 0 0 0 0 0 0 0 0 0 0 0 0 0 0 0 0.25 0"/>
<feBlend mode="normal" in2="BackgroundImageFix" result="effect1_dropShadow_16_31"/>
<feBlend mode="normal" in="SourceGraphic" in2="effect1_dropShadow_16_31" result="shape"/>
</filter>
<clipPath id="clip0_16_31">
<rect width="480" height="800" fill="white"/>
</clipPath>
</defs>
</svg>
