<svg width="480" height="800" viewBox="0 0 480 800" fill="none" xmlns="http://www.w3.org/2000/svg">
<g clip-path="url(#clip0_34_80)">
<rect width="480" height="800" fill="#B8F2E6"/>
<path d="M554.241 227.334C644.448 278.883 363.318 447.148 380.443 557.498C396.838 663.138 527.181 731.54 461.601 835.328C359.728 996.555 -49.492 763.113 -100.518 610.668C-157.824 439.457 403.581 141.24 554.241 227.334Z" fill="#AED9E0" fill-opacity="0.6"/>
<path d="M34.0558 357.407C149.67 338.054 202.98 430.581 300.793 495.294C394.431 557.246 500.556 567.585 523.074 677.72C558.053 848.805 271.019 926.327 112.615 853.434C-65.286 771.568 -159.038 389.73 34.0558 357.407Z" fill="#B8F2E6" fill-opacity="0.6"/>
<path d="M-60.8804 425.184C45.0828 407.486 93.9431 492.097 183.591 551.275C269.413 607.926 366.68 617.38 387.318 718.093C419.377 874.542 156.303 945.432 11.1216 878.775C-151.93 803.913 -237.856 454.742 -60.8804 425.184Z" fill="#AED9E0" fill-opacity="0.8"/>
<path d="M-127.88 450.184C-21.9172 432.486 26.9431 517.097 116.591 576.275C202.413 632.926 299.68 642.38 320.318 743.093C352.377 899.542 89.3029 970.432 -55.8784 903.775C-218.93 828.913 -304.856 479.742 -127.88 450.184Z" stroke="#43A3B1" stroke-opacity="0.6"/>
<path d="M-111.241 614.463C-201.448 562.915 79.682 394.65 62.5566 284.3C46.1622 178.66 -84.1806 110.258 -18.6009 6.46959C83.2717 -154.757 492.492 78.6844 543.518 231.13C600.824 402.34 39.4188 700.558 -111.241 614.463Z" fill="#AED9E0" fill-opacity="0.6"/>
<path d="M408.944 484.391C293.33 503.744 240.02 411.217 142.207 346.504C48.5691 284.552 -57.556 274.213 -80.0736 164.078C-115.053 -7.00756 171.981 -84.5294 330.385 -11.6361C508.286 70.2296 602.038 452.067 408.944 484.391Z" fill="#B8F2E6" fill-opacity="0.6"/>
<path d="M503.88 416.614C397.917 434.311 349.057 349.7 259.409 290.523C173.587 233.872 76.3201 224.417 55.6821 123.705C23.6228 -32.7446 286.697 -103.634 431.878 -36.9771C594.93 37.8848 680.856 387.056 503.88 416.614Z" fill="#AED9E0" fill-opacity="0.8"/>
<path d="M570.88 391.614C464.917 409.311 416.057 324.7 326.409 265.523C240.587 208.872 143.32 199.417 122.682 98.7045C90.6228 -57.7446 353.697 -128.634 498.878 -61.9771C661.93 12.8848 747.856 362.056 570.88 391.614Z" stroke="#43A3B1" stroke-opacity="0.6"/>
<path d="M15 60C15 40.67 30.67 25 50 25H430C449.33 25 465 40.67 465 60V480C465 499.33 449.33 515 430 515H50C30.67 515 15 499.33 15 480V60Z" fill="#F6F5F5"/>
<path d="M440 280.584C440 285.309 436.169 289.14 431.444 289.14L48.5562 289.14C43.8307 289.14 40 285.309 40 280.584V121.553C40 116.828 43.8307 112.997 48.5562 112.997L431.444 112.997C436.169 112.997 440 116.828 440 121.553V280.584Z" fill="#E2DFDF"/>
<path d="M439.465 280.584C439.465 285.014 435.874 288.605 431.444 288.605L48.5562 288.605C44.1261 288.605 40.5348 285.014 40.5348 280.584V121.553C40.5348 117.123 44.1261 113.532 48.5562 113.532L431.444 113.532C435.874 113.532 439.465 117.123 439.465 121.553V280.584Z" stroke="black" stroke-opacity="0.1" stroke-width="1.06952"/>
<path d="M440 481.444C440 486.169 436.169 490 431.444 490L48.5562 490C43.8307 490 40 486.169 40 481.444V322.413C40 317.688 43.8307 313.857 48.5562 313.857L431.444 313.857C436.169 313.857 440 317.688 440 322.413V481.444Z" fill="#E2DFDF"/>
<path d="M439.465 481.444C439.465 485.874 435.874 489.465 431.444 489.465L48.5562 489.465C44.1261 489.465 40.5348 485.874 40.5348 481.444V322.413C40.5348 317.983 44.1261 314.392 48.5562 314.392L431.444 314.392C435.874 314.392 439.465 317.983 439.465 322.413V481.444Z" stroke="black" stroke-opacity="0.1" stroke-width="1.06952"/>
<path d="M112.435 88.238C110.214 88.238 108.174 87.7167 106.315 86.674C104.457 85.6313 102.983 84.192 101.895 82.356C100.807 80.4973 100.263 78.4007 100.263 76.066C100.263 73.754 100.807 71.68 101.895 69.844C102.983 67.9853 104.457 66.5347 106.315 65.492C108.174 64.4493 110.214 63.928 112.435 63.928C114.679 63.928 116.719 64.4493 118.555 65.492C120.414 66.5347 121.876 67.9853 122.941 69.844C124.029 71.68 124.573 73.754 124.573 76.066C124.573 78.4007 124.029 80.4973 122.941 82.356C121.876 84.192 120.414 85.6313 118.555 86.674C116.697 87.7167 114.657 88.238 112.435 88.238ZM112.435 83.988C113.863 83.988 115.121 83.6707 116.209 83.036C117.297 82.3787 118.147 81.4493 118.759 80.248C119.371 79.0467 119.677 77.6527 119.677 76.066C119.677 74.4793 119.371 73.0967 118.759 71.918C118.147 70.7167 117.297 69.7987 116.209 69.164C115.121 68.5293 113.863 68.212 112.435 68.212C111.007 68.212 109.738 68.5293 108.627 69.164C107.539 69.7987 106.689 70.7167 106.077 71.918C105.465 73.0967 105.159 74.4793 105.159 76.066C105.159 77.6527 105.465 79.0467 106.077 80.248C106.689 81.4493 107.539 82.3787 108.627 83.036C109.738 83.6707 111.007 83.988 112.435 83.988ZM133.285 71.918C133.897 71.0113 134.735 70.2747 135.801 69.708C136.889 69.1413 138.124 68.858 139.507 68.858C141.116 68.858 142.567 69.2547 143.859 70.048C145.173 70.8413 146.205 71.9747 146.953 73.448C147.723 74.8987 148.109 76.5873 148.109 78.514C148.109 80.4407 147.723 82.152 146.953 83.648C146.205 85.1213 145.173 86.266 143.859 87.082C142.567 87.898 141.116 88.306 139.507 88.306C138.101 88.306 136.866 88.034 135.801 87.49C134.758 86.9233 133.919 86.198 133.285 85.314V88H128.525V62.84H133.285V71.918ZM143.247 78.514C143.247 77.3807 143.009 76.406 142.533 75.59C142.079 74.7513 141.467 74.1167 140.697 73.686C139.949 73.2553 139.133 73.04 138.249 73.04C137.387 73.04 136.571 73.2667 135.801 73.72C135.053 74.1507 134.441 74.7853 133.965 75.624C133.511 76.4627 133.285 77.4487 133.285 78.582C133.285 79.7153 133.511 80.7013 133.965 81.54C134.441 82.3787 135.053 83.0247 135.801 83.478C136.571 83.9087 137.387 84.124 138.249 84.124C139.133 84.124 139.949 83.8973 140.697 83.444C141.467 82.9907 142.079 82.3447 142.533 81.506C143.009 80.6673 143.247 79.67 143.247 78.514ZM157.52 73.074V82.186C157.52 82.8207 157.667 83.2853 157.962 83.58C158.279 83.852 158.8 83.988 159.526 83.988H161.736V88H158.744C154.732 88 152.726 86.0507 152.726 82.152V73.074H150.482V69.164H152.726V64.506H157.52V69.164H161.736V73.074H157.52ZM164.345 78.514C164.345 76.61 164.719 74.9213 165.467 73.448C166.238 71.9747 167.269 70.8413 168.561 70.048C169.876 69.2547 171.338 68.858 172.947 68.858C174.353 68.858 175.577 69.1413 176.619 69.708C177.685 70.2747 178.535 70.9887 179.169 71.85V69.164H183.963V88H179.169V85.246C178.557 86.13 177.707 86.8667 176.619 87.456C175.554 88.0227 174.319 88.306 172.913 88.306C171.327 88.306 169.876 87.898 168.561 87.082C167.269 86.266 166.238 85.1213 165.467 83.648C164.719 82.152 164.345 80.4407 164.345 78.514ZM179.169 78.582C179.169 77.426 178.943 76.44 178.489 75.624C178.036 74.7853 177.424 74.1507 176.653 73.72C175.883 73.2667 175.055 73.04 174.171 73.04C173.287 73.04 172.471 73.2553 171.723 73.686C170.975 74.1167 170.363 74.7513 169.887 75.59C169.434 76.406 169.207 77.3807 169.207 78.514C169.207 79.6473 169.434 80.6447 169.887 81.506C170.363 82.3447 170.975 82.9907 171.723 83.444C172.494 83.8973 173.31 84.124 174.171 84.124C175.055 84.124 175.883 83.9087 176.653 83.478C177.424 83.0247 178.036 82.39 178.489 81.574C178.943 80.7353 179.169 79.738 179.169 78.582ZM191.436 66.92C190.598 66.92 189.895 66.6593 189.328 66.138C188.784 65.594 188.512 64.9253 188.512 64.132C188.512 63.3387 188.784 62.6813 189.328 62.16C189.895 61.616 190.598 61.344 191.436 61.344C192.275 61.344 192.966 61.616 193.51 62.16C194.077 62.6813 194.36 63.3387 194.36 64.132C194.36 64.9253 194.077 65.594 193.51 66.138C192.966 66.6593 192.275 66.92 191.436 66.92ZM193.782 69.164V88H189.022V69.164H193.782ZM209.333 68.892C211.577 68.892 213.39 69.606 214.773 71.034C216.156 72.4393 216.847 74.4113 216.847 76.95V88H212.087V77.596C212.087 76.1 211.713 74.9553 210.965 74.162C210.217 73.346 209.197 72.938 207.905 72.938C206.59 72.938 205.548 73.346 204.777 74.162C204.029 74.9553 203.655 76.1 203.655 77.596V88H198.895V69.164H203.655V71.51C204.29 70.694 205.094 70.0593 206.069 69.606C207.066 69.13 208.154 68.892 209.333 68.892ZM235.837 73.074V82.186C235.837 82.8207 235.985 83.2853 236.279 83.58C236.597 83.852 237.118 83.988 237.843 83.988H240.053V88H237.061C233.049 88 231.043 86.0507 231.043 82.152V73.074H228.799V69.164H231.043V64.506H235.837V69.164H240.053V73.074H235.837ZM254.495 68.892C255.923 68.892 257.192 69.2093 258.303 69.844C259.414 70.456 260.275 71.374 260.887 72.598C261.522 73.7993 261.839 75.25 261.839 76.95V88H257.079V77.596C257.079 76.1 256.705 74.9553 255.957 74.162C255.209 73.346 254.189 72.938 252.897 72.938C251.582 72.938 250.54 73.346 249.769 74.162C249.021 74.9553 248.647 76.1 248.647 77.596V88H243.887V62.84H248.647V71.51C249.259 70.694 250.075 70.0593 251.095 69.606C252.115 69.13 253.248 68.892 254.495 68.892ZM284.285 78.174C284.285 78.854 284.24 79.466 284.149 80.01H270.379C270.493 81.37 270.969 82.4353 271.807 83.206C272.646 83.9767 273.677 84.362 274.901 84.362C276.669 84.362 277.927 83.6027 278.675 82.084H283.809C283.265 83.8973 282.223 85.3933 280.681 86.572C279.14 87.728 277.247 88.306 275.003 88.306C273.19 88.306 271.558 87.9093 270.107 87.116C268.679 86.3 267.557 85.1553 266.741 83.682C265.948 82.2087 265.551 80.5087 265.551 78.582C265.551 76.6327 265.948 74.9213 266.741 73.448C267.535 71.9747 268.645 70.8413 270.073 70.048C271.501 69.2547 273.145 68.858 275.003 68.858C276.794 68.858 278.392 69.2433 279.797 70.014C281.225 70.7847 282.325 71.884 283.095 73.312C283.889 74.7173 284.285 76.338 284.285 78.174ZM279.355 76.814C279.333 75.59 278.891 74.6153 278.029 73.89C277.168 73.142 276.114 72.768 274.867 72.768C273.689 72.768 272.691 73.1307 271.875 73.856C271.082 74.5587 270.595 75.5447 270.413 76.814H279.355ZM322.555 64.268V88H317.795V72.564L311.437 88H307.833L301.441 72.564V88H296.681V64.268H302.087L309.635 81.914L317.183 64.268H322.555ZM330.085 66.92C329.247 66.92 328.544 66.6593 327.977 66.138C327.433 65.594 327.161 64.9253 327.161 64.132C327.161 63.3387 327.433 62.6813 327.977 62.16C328.544 61.616 329.247 61.344 330.085 61.344C330.924 61.344 331.615 61.616 332.159 62.16C332.726 62.6813 333.009 63.3387 333.009 64.132C333.009 64.9253 332.726 65.594 332.159 66.138C331.615 66.6593 330.924 66.92 330.085 66.92ZM332.431 69.164V88H327.671V69.164H332.431ZM342.304 62.84V88H337.544V62.84H342.304ZM358.569 88L352.177 79.976V88H347.417V62.84H352.177V77.154L358.501 69.164H364.689L356.393 78.616L364.757 88H358.569Z" fill="#275F68"/>
<path d="M27 560C27 540.67 42.67 525 62 525H417C436.33 525 452 540.67 452 560V567.5C452 586.83 436.33 602.5 417 602.5H62C42.67 602.5 27 586.83 27 567.5V560Z" fill="#F6F5F5"/>
<path d="M45 544C45 539.582 48.5817 536 53 536H157C161.418 536 165 539.582 165 544V584C165 588.418 161.418 592 157 592H53C48.5817 592 45 588.418 45 584V544Z" fill="#0BCE83"/>
<path d="M101.04 558.53L97.4999 565.355V569H95.3999V565.355L91.8449 558.53H94.2149L96.4649 563.315L98.6999 558.53H101.04ZM104.341 560.225V562.85H107.866V564.515H104.341V567.29H108.316V569H102.241V558.515H108.316V560.225H104.341ZM113.829 569.105C113.099 569.105 112.439 568.98 111.849 568.73C111.269 568.48 110.809 568.12 110.469 567.65C110.129 567.18 109.954 566.625 109.944 565.985H112.194C112.224 566.415 112.374 566.755 112.644 567.005C112.924 567.255 113.304 567.38 113.784 567.38C114.274 567.38 114.659 567.265 114.939 567.035C115.219 566.795 115.359 566.485 115.359 566.105C115.359 565.795 115.264 565.54 115.074 565.34C114.884 565.14 114.644 564.985 114.354 564.875C114.074 564.755 113.684 564.625 113.184 564.485C112.504 564.285 111.949 564.09 111.519 563.9C111.099 563.7 110.734 563.405 110.424 563.015C110.124 562.615 109.974 562.085 109.974 561.425C109.974 560.805 110.129 560.265 110.439 559.805C110.749 559.345 111.184 558.995 111.744 558.755C112.304 558.505 112.944 558.38 113.664 558.38C114.744 558.38 115.619 558.645 116.289 559.175C116.969 559.695 117.344 560.425 117.414 561.365H115.104C115.084 561.005 114.929 560.71 114.639 560.48C114.359 560.24 113.984 560.12 113.514 560.12C113.104 560.12 112.774 560.225 112.524 560.435C112.284 560.645 112.164 560.95 112.164 561.35C112.164 561.63 112.254 561.865 112.434 562.055C112.624 562.235 112.854 562.385 113.124 562.505C113.404 562.615 113.794 562.745 114.294 562.895C114.974 563.095 115.529 563.295 115.959 563.495C116.389 563.695 116.759 563.995 117.069 564.395C117.379 564.795 117.534 565.32 117.534 565.97C117.534 566.53 117.389 567.05 117.099 567.53C116.809 568.01 116.384 568.395 115.824 568.685C115.264 568.965 114.599 569.105 113.829 569.105Z" fill="white"/>
<path d="M180 544C180 539.582 183.582 536 188 536H292C296.418 536 300 539.582 300 544V584C300 588.418 296.418 592 292 592H188C183.582 592 180 588.418 180 584V544Z" fill="#EF233C"/>
<path d="M238.591 569H236.491L231.736 561.815V569H229.636V558.515H231.736L236.491 565.715V558.515H238.591V569ZM245.516 569.105C244.536 569.105 243.636 568.875 242.816 568.415C241.996 567.955 241.346 567.32 240.866 566.51C240.386 565.69 240.146 564.765 240.146 563.735C240.146 562.715 240.386 561.8 240.866 560.99C241.346 560.17 241.996 559.53 242.816 559.07C243.636 558.61 244.536 558.38 245.516 558.38C246.506 558.38 247.406 558.61 248.216 559.07C249.036 559.53 249.681 560.17 250.151 560.99C250.631 561.8 250.871 562.715 250.871 563.735C250.871 564.765 250.631 565.69 250.151 566.51C249.681 567.32 249.036 567.955 248.216 568.415C247.396 568.875 246.496 569.105 245.516 569.105ZM245.516 567.23C246.146 567.23 246.701 567.09 247.181 566.81C247.661 566.52 248.036 566.11 248.306 565.58C248.576 565.05 248.711 564.435 248.711 563.735C248.711 563.035 248.576 562.425 248.306 561.905C248.036 561.375 247.661 560.97 247.181 560.69C246.701 560.41 246.146 560.27 245.516 560.27C244.886 560.27 244.326 560.41 243.836 560.69C243.356 560.97 242.981 561.375 242.711 561.905C242.441 562.425 242.306 563.035 242.306 563.735C242.306 564.435 242.441 565.05 242.711 565.58C242.981 566.11 243.356 566.52 243.836 566.81C244.326 567.09 244.886 567.23 245.516 567.23Z" fill="white"/>
<path d="M314 544C314 539.582 317.582 536 322 536H426C430.418 536 434 539.582 434 544V584C434 588.418 430.418 592 426 592H322C317.582 592 314 588.418 314 584V544Z" fill="#F5ED00"/>
<path d="M360.777 558.53V569H358.677V562.19L355.872 569H354.282L351.462 562.19V569H349.362V558.53H351.747L355.077 566.315L358.407 558.53H360.777ZM369.263 567.005H365.093L364.403 569H362.198L365.963 558.515H368.408L372.173 569H369.953L369.263 567.005ZM368.693 565.325L367.178 560.945L365.663 565.325H368.693ZM381.895 558.53L378.355 565.355V569H376.255V565.355L372.7 558.53H375.07L377.32 563.315L379.555 558.53H381.895ZM389.036 563.63C389.626 563.74 390.111 564.035 390.491 564.515C390.871 564.995 391.061 565.545 391.061 566.165C391.061 566.725 390.921 567.22 390.641 567.65C390.371 568.07 389.976 568.4 389.456 568.64C388.936 568.88 388.321 569 387.611 569H383.096V558.53H387.416C388.126 558.53 388.736 558.645 389.246 558.875C389.766 559.105 390.156 559.425 390.416 559.835C390.686 560.245 390.821 560.71 390.821 561.23C390.821 561.84 390.656 562.35 390.326 562.76C390.006 563.17 389.576 563.46 389.036 563.63ZM385.196 562.85H387.116C387.616 562.85 388.001 562.74 388.271 562.52C388.541 562.29 388.676 561.965 388.676 561.545C388.676 561.125 388.541 560.8 388.271 560.57C388.001 560.34 387.616 560.225 387.116 560.225H385.196V562.85ZM387.311 567.29C387.821 567.29 388.216 567.17 388.496 566.93C388.786 566.69 388.931 566.35 388.931 565.91C388.931 565.46 388.781 565.11 388.481 564.86C388.181 564.6 387.776 564.47 387.266 564.47H385.196V567.29H387.311ZM394.825 560.225V562.85H398.35V564.515H394.825V567.29H398.8V569H392.725V558.515H398.8V560.225H394.825Z" fill="white"/>
<path d="M27 736C27 716.67 42.67 701 62 701H216C235.33 701 251 716.67 251 736V744C251 763.33 235.33 779 216 779H62C42.67 779 27 763.33 27 744V736Z" fill="#F6F5F5"/>
<path d="M27 648C27 628.67 42.67 613 62 613H265C284.33 613 300 628.67 300 648V656C300 675.33 284.33 691 265 691H62C42.67 691 27 675.33 27 656V648Z" fill="#F6F5F5"/>
<path d="M174 654.5C174 644.835 181.835 637 191.5 637H262.5C272.165 637 280 644.835 280 654.5C280 664.165 272.165 672 262.5 672H191.5C181.835 672 174 664.165 174 654.5Z" fill="#E2DFDF"/>
<path d="M196.877 651.615C197.257 651.675 197.602 651.83 197.912 652.08C198.232 652.33 198.482 652.64 198.662 653.01C198.852 653.38 198.947 653.775 198.947 654.195C198.947 654.725 198.812 655.205 198.542 655.635C198.272 656.055 197.877 656.39 197.357 656.64C196.847 656.88 196.242 657 195.542 657H191.642V646.545H195.392C196.102 646.545 196.707 646.665 197.207 646.905C197.707 647.135 198.082 647.45 198.332 647.85C198.582 648.25 198.707 648.7 198.707 649.2C198.707 649.82 198.537 650.335 198.197 650.745C197.867 651.145 197.427 651.435 196.877 651.615ZM193.007 651.06H195.302C195.942 651.06 196.437 650.91 196.787 650.61C197.137 650.31 197.312 649.895 197.312 649.365C197.312 648.835 197.137 648.42 196.787 648.12C196.437 647.82 195.932 647.67 195.272 647.67H193.007V651.06ZM195.422 655.875C196.102 655.875 196.632 655.715 197.012 655.395C197.392 655.075 197.582 654.63 197.582 654.06C197.582 653.48 197.382 653.025 196.982 652.695C196.582 652.355 196.047 652.185 195.377 652.185H193.007V655.875H195.422ZM207.011 654.675H202.451L201.611 657H200.171L203.951 646.605H205.526L209.291 657H207.851L207.011 654.675ZM206.621 653.565L204.731 648.285L202.841 653.565H206.621ZM210.418 651.765C210.418 650.745 210.648 649.83 211.108 649.02C211.568 648.2 212.193 647.56 212.983 647.1C213.783 646.64 214.668 646.41 215.638 646.41C216.778 646.41 217.773 646.685 218.623 647.235C219.473 647.785 220.093 648.565 220.483 649.575H218.848C218.558 648.945 218.138 648.46 217.588 648.12C217.048 647.78 216.398 647.61 215.638 647.61C214.908 647.61 214.253 647.78 213.673 648.12C213.093 648.46 212.638 648.945 212.308 649.575C211.978 650.195 211.813 650.925 211.813 651.765C211.813 652.595 211.978 653.325 212.308 653.955C212.638 654.575 213.093 655.055 213.673 655.395C214.253 655.735 214.908 655.905 215.638 655.905C216.398 655.905 217.048 655.74 217.588 655.41C218.138 655.07 218.558 654.585 218.848 653.955H220.483C220.093 654.955 219.473 655.73 218.623 656.28C217.773 656.82 216.778 657.09 215.638 657.09C214.668 657.09 213.783 656.865 212.983 656.415C212.193 655.955 211.568 655.32 211.108 654.51C210.648 653.7 210.418 652.785 210.418 651.765ZM228.175 657L223.87 652.23V657H222.505V646.545H223.87V651.39L228.19 646.545H229.915L225.175 651.78L229.96 657H228.175ZM231.91 657.09C231.65 657.09 231.43 657 231.25 656.82C231.07 656.64 230.98 656.42 230.98 656.16C230.98 655.9 231.07 655.68 231.25 655.5C231.43 655.32 231.65 655.23 231.91 655.23C232.16 655.23 232.37 655.32 232.54 655.5C232.72 655.68 232.81 655.9 232.81 656.16C232.81 656.42 232.72 656.64 232.54 656.82C232.37 657 232.16 657.09 231.91 657.09ZM231.91 650.67C231.65 650.67 231.43 650.58 231.25 650.4C231.07 650.22 230.98 650 230.98 649.74C230.98 649.48 231.07 649.26 231.25 649.08C231.43 648.9 231.65 648.81 231.91 648.81C232.16 648.81 232.37 648.9 232.54 649.08C232.72 649.26 232.81 649.48 232.81 649.74C232.81 650 232.72 650.22 232.54 650.4C232.37 650.58 232.16 650.67 231.91 650.67Z" fill="#327A85"/>
<path d="M254.963 647.4V646.155H257.783V657H256.403V647.4H254.963ZM267.033 647.34H261.768V650.76C261.998 650.44 262.338 650.18 262.788 649.98C263.238 649.77 263.723 649.665 264.243 649.665C265.073 649.665 265.748 649.84 266.268 650.19C266.788 650.53 267.158 650.975 267.378 651.525C267.608 652.065 267.723 652.64 267.723 653.25C267.723 653.97 267.588 654.615 267.318 655.185C267.048 655.755 266.633 656.205 266.073 656.535C265.523 656.865 264.838 657.03 264.018 657.03C262.968 657.03 262.118 656.76 261.468 656.22C260.818 655.68 260.423 654.96 260.283 654.06H261.618C261.748 654.63 262.023 655.075 262.443 655.395C262.863 655.715 263.393 655.875 264.033 655.875C264.823 655.875 265.418 655.64 265.818 655.17C266.218 654.69 266.418 654.06 266.418 653.28C266.418 652.5 266.218 651.9 265.818 651.48C265.418 651.05 264.828 650.835 264.048 650.835C263.518 650.835 263.053 650.965 262.653 651.225C262.263 651.475 261.978 651.82 261.798 652.26H260.508V646.14H267.033V647.34Z" fill="#327A85"/>
<path d="M197.963 736.4V735.155H200.783V746H199.403V736.4H197.963ZM210.033 736.34H204.768V739.76C204.998 739.44 205.338 739.18 205.788 738.98C206.238 738.77 206.723 738.665 207.243 738.665C208.073 738.665 208.748 738.84 209.268 739.19C209.788 739.53 210.158 739.975 210.378 740.525C210.608 741.065 210.723 741.64 210.723 742.25C210.723 742.97 210.588 743.615 210.318 744.185C210.048 744.755 209.633 745.205 209.073 745.535C208.523 745.865 207.838 746.03 207.018 746.03C205.968 746.03 205.118 745.76 204.468 745.22C203.818 744.68 203.423 743.96 203.283 743.06H204.618C204.748 743.63 205.023 744.075 205.443 744.395C205.863 744.715 206.393 744.875 207.033 744.875C207.823 744.875 208.418 744.64 208.818 744.17C209.218 743.69 209.418 743.06 209.418 742.28C209.418 741.5 209.218 740.9 208.818 740.48C208.418 740.05 207.828 739.835 207.048 739.835C206.518 739.835 206.053 739.965 205.653 740.225C205.263 740.475 204.978 740.82 204.798 741.26H203.508V735.14H210.033V736.34Z" fill="#327A85"/>
<path d="M45 632C45 627.582 48.5817 624 53 624H157C161.418 624 165 627.582 165 632V672C165 676.418 161.418 680 157 680H53C48.5817 680 45 676.418 45 672V632Z" fill="#00B4D8"/>
<path d="M91.072 651.63C91.662 651.74 92.147 652.035 92.527 652.515C92.907 652.995 93.097 653.545 93.097 654.165C93.097 654.725 92.957 655.22 92.677 655.65C92.407 656.07 92.012 656.4 91.492 656.64C90.972 656.88 90.357 657 89.647 657H85.132V646.53H89.452C90.162 646.53 90.772 646.645 91.282 646.875C91.802 647.105 92.192 647.425 92.452 647.835C92.722 648.245 92.857 648.71 92.857 649.23C92.857 649.84 92.692 650.35 92.362 650.76C92.042 651.17 91.612 651.46 91.072 651.63ZM87.232 650.85H89.152C89.652 650.85 90.037 650.74 90.307 650.52C90.577 650.29 90.712 649.965 90.712 649.545C90.712 649.125 90.577 648.8 90.307 648.57C90.037 648.34 89.652 648.225 89.152 648.225H87.232V650.85ZM89.347 655.29C89.857 655.29 90.252 655.17 90.532 654.93C90.822 654.69 90.967 654.35 90.967 653.91C90.967 653.46 90.817 653.11 90.517 652.86C90.217 652.6 89.812 652.47 89.302 652.47H87.232V655.29H89.347ZM101.181 655.005H97.0107L96.3207 657H94.1157L97.8807 646.515H100.326L104.091 657H101.871L101.181 655.005ZM100.611 653.325L99.0957 648.945L97.5807 653.325H100.611ZM104.978 651.75C104.978 650.72 105.208 649.8 105.668 648.99C106.138 648.17 106.773 647.535 107.573 647.085C108.383 646.625 109.288 646.395 110.288 646.395C111.458 646.395 112.483 646.695 113.363 647.295C114.243 647.895 114.858 648.725 115.208 649.785H112.793C112.553 649.285 112.213 648.91 111.773 648.66C111.343 648.41 110.843 648.285 110.273 648.285C109.663 648.285 109.118 648.43 108.638 648.72C108.168 649 107.798 649.4 107.528 649.92C107.268 650.44 107.138 651.05 107.138 651.75C107.138 652.44 107.268 653.05 107.528 653.58C107.798 654.1 108.168 654.505 108.638 654.795C109.118 655.075 109.663 655.215 110.273 655.215C110.843 655.215 111.343 655.09 111.773 654.84C112.213 654.58 112.553 654.2 112.793 653.7H115.208C114.858 654.77 114.243 655.605 113.363 656.205C112.493 656.795 111.468 657.09 110.288 657.09C109.288 657.09 108.383 656.865 107.573 656.415C106.773 655.955 106.138 655.32 105.668 654.51C105.208 653.7 104.978 652.78 104.978 651.75ZM122.902 657L119.092 652.335V657H116.992V646.53H119.092V651.225L122.902 646.53H125.437L121.117 651.72L125.557 657H122.902Z" fill="white"/>
<path d="M45 721C45 716.582 48.5817 713 53 713H157C161.418 713 165 716.582 165 721V761C165 765.418 161.418 769 157 769H53C48.5817 769 45 765.418 45 761V721Z" fill="#673AB7"/>
<path d="M88.0743 744.335H91.5243V746H85.9743V735.53H88.0743V744.335ZM97.7091 746.105C96.7291 746.105 95.8291 745.875 95.0091 745.415C94.1891 744.955 93.5391 744.32 93.0591 743.51C92.5791 742.69 92.3391 741.765 92.3391 740.735C92.3391 739.715 92.5791 738.8 93.0591 737.99C93.5391 737.17 94.1891 736.53 95.0091 736.07C95.8291 735.61 96.7291 735.38 97.7091 735.38C98.6991 735.38 99.5991 735.61 100.409 736.07C101.229 736.53 101.874 737.17 102.344 737.99C102.824 738.8 103.064 739.715 103.064 740.735C103.064 741.765 102.824 742.69 102.344 743.51C101.874 744.32 101.229 744.955 100.409 745.415C99.5891 745.875 98.6891 746.105 97.7091 746.105ZM97.7091 744.23C98.3391 744.23 98.8941 744.09 99.3741 743.81C99.8541 743.52 100.229 743.11 100.499 742.58C100.769 742.05 100.904 741.435 100.904 740.735C100.904 740.035 100.769 739.425 100.499 738.905C100.229 738.375 99.8541 737.97 99.3741 737.69C98.8941 737.41 98.3391 737.27 97.7091 737.27C97.0791 737.27 96.5191 737.41 96.0291 737.69C95.5491 737.97 95.1741 738.375 94.9041 738.905C94.6341 739.425 94.4991 740.035 94.4991 740.735C94.4991 741.435 94.6341 742.05 94.9041 742.58C95.1741 743.11 95.5491 743.52 96.0291 743.81C96.5191 744.09 97.0791 744.23 97.7091 744.23ZM111.036 744.005H106.866L106.176 746H103.971L107.736 735.515H110.181L113.946 746H111.726L111.036 744.005ZM110.466 742.325L108.951 737.945L107.436 742.325H110.466ZM119.004 735.53C120.104 735.53 121.069 735.745 121.899 736.175C122.739 736.605 123.384 737.22 123.834 738.02C124.294 738.81 124.524 739.73 124.524 740.78C124.524 741.83 124.294 742.75 123.834 743.54C123.384 744.32 122.739 744.925 121.899 745.355C121.069 745.785 120.104 746 119.004 746H115.344V735.53H119.004ZM118.929 744.215C120.029 744.215 120.879 743.915 121.479 743.315C122.079 742.715 122.379 741.87 122.379 740.78C122.379 739.69 122.079 738.84 121.479 738.23C120.879 737.61 120.029 737.3 118.929 737.3H117.444V744.215H118.929Z" fill="white"/>
</g>
<defs>
<clipPath id="clip0_34_80">
<rect width="480" height="800" fill="white"/>
</clipPath>
</defs>
</svg>
