<svg width="480" height="800" viewBox="0 0 480 800" fill="none" xmlns="http://www.w3.org/2000/svg">
<g clip-path="url(#clip0_35_139)">
<rect width="480" height="800" fill="#B8F2E6"/>
<path d="M554.241 227.334C644.448 278.883 363.318 447.148 380.443 557.498C396.838 663.138 527.181 731.54 461.601 835.328C359.728 996.555 -49.492 763.113 -100.518 610.668C-157.824 439.457 403.581 141.24 554.241 227.334Z" fill="#AED9E0" fill-opacity="0.6"/>
<path d="M34.0558 357.407C149.67 338.054 202.98 430.581 300.793 495.294C394.431 557.246 500.556 567.585 523.074 677.72C558.053 848.805 271.019 926.327 112.615 853.434C-65.286 771.568 -159.038 389.73 34.0558 357.407Z" fill="#B8F2E6" fill-opacity="0.6"/>
<path d="M-60.8804 425.184C45.0828 407.486 93.9431 492.097 183.591 551.275C269.413 607.926 366.68 617.38 387.318 718.093C419.377 874.542 156.303 945.432 11.1216 878.775C-151.93 803.913 -237.856 454.742 -60.8804 425.184Z" fill="#AED9E0" fill-opacity="0.8"/>
<path d="M-127.88 450.184C-21.9172 432.486 26.9431 517.097 116.591 576.275C202.413 632.926 299.68 642.38 320.318 743.093C352.377 899.542 89.3029 970.432 -55.8784 903.775C-218.93 828.913 -304.856 479.742 -127.88 450.184Z" stroke="#43A3B1" stroke-opacity="0.6"/>
<path d="M-111.241 614.463C-201.448 562.915 79.682 394.65 62.5566 284.3C46.1622 178.66 -84.1806 110.258 -18.6009 6.46959C83.2717 -154.757 492.492 78.6844 543.518 231.13C600.824 402.34 39.4188 700.558 -111.241 614.463Z" fill="#AED9E0" fill-opacity="0.6"/>
<path d="M408.944 484.391C293.33 503.744 240.02 411.217 142.207 346.504C48.5691 284.552 -57.556 274.213 -80.0736 164.078C-115.053 -7.00756 171.981 -84.5294 330.385 -11.6361C508.286 70.2296 602.038 452.067 408.944 484.391Z" fill="#B8F2E6" fill-opacity="0.6"/>
<path d="M503.88 416.614C397.917 434.311 349.057 349.7 259.409 290.523C173.587 233.872 76.3201 224.417 55.6821 123.705C23.6228 -32.7446 286.697 -103.634 431.878 -36.9771C594.93 37.8848 680.856 387.056 503.88 416.614Z" fill="#AED9E0" fill-opacity="0.8"/>
<path d="M570.88 391.614C464.917 409.311 416.057 324.7 326.409 265.523C240.587 208.872 143.32 199.417 122.682 98.7045C90.6228 -57.7446 353.697 -128.634 498.878 -61.9771C661.93 12.8848 747.856 362.056 570.88 391.614Z" stroke="#43A3B1" stroke-opacity="0.6"/>
<path d="M15 60C15 40.67 30.67 25 50 25H430C449.33 25 465 40.67 465 60V480C465 499.33 449.33 515 430 515H50C30.67 515 15 499.33 15 480V60Z" fill="#F6F5F5"/>
<path d="M440 280.584C440 285.309 436.169 289.14 431.444 289.14L48.5562 289.14C43.8307 289.14 40 285.309 40 280.584V121.553C40 116.828 43.8307 112.997 48.5562 112.997L431.444 112.997C436.169 112.997 440 116.828 440 121.553V280.584Z" fill="#E2DFDF"/>
<path d="M439.465 280.584C439.465 285.014 435.874 288.605 431.444 288.605L48.5562 288.605C44.1261 288.605 40.5348 285.014 40.5348 280.584V121.553C40.5348 117.123 44.1261 113.532 48.5562 113.532L431.444 113.532C435.874 113.532 439.465 117.123 439.465 121.553V280.584Z" stroke="black" stroke-opacity="0.1" stroke-width="1.06952"/>
<path d="M440 481.444C440 486.169 436.169 490 431.444 490L48.5562 490C43.8307 490 40 486.169 40 481.444V322.413C40 317.688 43.8307 313.857 48.5562 313.857L431.444 313.857C436.169 313.857 440 317.688 440 322.413V481.444Z" fill="#E2DFDF"/>
<path d="M439.465 481.444C439.465 485.874 435.874 489.465 431.444 489.465L48.5562 489.465C44.1261 489.465 40.5348 485.874 40.5348 481.444V322.413C40.5348 317.983 44.1261 314.392 48.5562 314.392L431.444 314.392C435.874 314.392 439.465 317.983 439.465 322.413V481.444Z" stroke="black" stroke-opacity="0.1" stroke-width="1.06952"/>
<path d="M27 560C27 540.67 42.67 525 62 525H417C436.33 525 452 540.67 452 560V567.5C452 586.83 436.33 602.5 417 602.5H62C42.67 602.5 27 586.83 27 567.5V560Z" fill="#F6F5F5"/>
<path d="M27 736C27 716.67 42.67 701 62 701H216C235.33 701 251 716.67 251 736V744C251 763.33 235.33 779 216 779H62C42.67 779 27 763.33 27 744V736Z" fill="#F6F5F5"/>
<path d="M27 648C27 628.67 42.67 613 62 613H265C284.33 613 300 628.67 300 648V656C300 675.33 284.33 691 265 691H62C42.67 691 27 675.33 27 656V648Z" fill="#F6F5F5"/>
<path d="M174 654.5C174 644.835 181.835 637 191.5 637H262.5C272.165 637 280 644.835 280 654.5C280 664.165 272.165 672 262.5 672H191.5C181.835 672 174 664.165 174 654.5Z" fill="#E2DFDF"/>
</g>
<defs>
<clipPath id="clip0_35_139">
<rect width="480" height="800" fill="white"/>
</clipPath>
</defs>
</svg>
