<svg width="480" height="800" viewBox="0 0 480 800" fill="none" xmlns="http://www.w3.org/2000/svg">
<g clip-path="url(#clip0_5_34)">
<rect width="480" height="800" fill="#B8F2E6"/>
<path d="M554.241 227.334C644.448 278.883 363.318 447.148 380.443 557.498C396.838 663.138 527.181 731.54 461.601 835.328C359.728 996.555 -49.492 763.113 -100.518 610.668C-157.824 439.457 403.581 141.24 554.241 227.334Z" fill="#AED9E0" fill-opacity="0.6"/>
<path d="M34.0558 357.407C149.67 338.054 202.98 430.581 300.793 495.294C394.431 557.246 500.556 567.585 523.074 677.72C558.053 848.805 271.019 926.327 112.615 853.434C-65.286 771.568 -159.038 389.73 34.0558 357.407Z" fill="#B8F2E6" fill-opacity="0.6"/>
<path d="M-60.8804 425.184C45.0828 407.486 93.9431 492.097 183.591 551.275C269.413 607.926 366.68 617.38 387.318 718.093C419.377 874.542 156.303 945.432 11.1216 878.775C-151.93 803.913 -237.856 454.742 -60.8804 425.184Z" fill="#AED9E0" fill-opacity="0.8"/>
<path d="M-127.88 450.184C-21.9172 432.486 26.9431 517.097 116.591 576.275C202.413 632.926 299.68 642.38 320.318 743.093C352.377 899.542 89.3029 970.432 -55.8784 903.775C-218.93 828.913 -304.856 479.742 -127.88 450.184Z" stroke="#43A3B1" stroke-opacity="0.6"/>
<path d="M-111.241 614.463C-201.448 562.915 79.6819 394.65 62.5565 284.3C46.1621 178.66 -84.1807 110.258 -18.601 6.46959C83.2716 -154.757 492.492 78.6844 543.518 231.13C600.824 402.34 39.4187 700.558 -111.241 614.463Z" fill="#AED9E0" fill-opacity="0.6"/>
<path d="M408.944 484.391C293.33 503.744 240.02 411.217 142.207 346.504C48.569 284.552 -57.5561 274.213 -80.0737 164.078C-115.053 -7.00756 171.981 -84.5294 330.385 -11.6361C508.286 70.2296 602.038 452.067 408.944 484.391Z" fill="#B8F2E6" fill-opacity="0.6"/>
<path d="M503.88 416.614C397.917 434.311 349.057 349.7 259.409 290.523C173.587 233.872 76.32 224.417 55.682 123.705C23.6227 -32.7446 286.697 -103.634 431.878 -36.9771C594.93 37.8848 680.856 387.056 503.88 416.614Z" fill="#AED9E0" fill-opacity="0.8"/>
<path d="M570.88 391.614C464.917 409.311 416.057 324.7 326.409 265.523C240.587 208.872 143.32 199.417 122.682 98.7045C90.6227 -57.7446 353.697 -128.634 498.878 -61.9771C661.93 12.8848 747.856 362.056 570.88 391.614Z" stroke="#43A3B1" stroke-opacity="0.6"/>
<g filter="url(#filter0_d_5_34)">
<path d="M0 480C0 463.431 13.4315 450 30 450H450C466.569 450 480 463.431 480 480V800H0V480Z" fill="#F6F5F5"/>
</g>
<circle cx="240" cy="205" r="52" fill="white"/>
</g>
<defs>
<filter id="filter0_d_5_34" x="-4" y="450" width="488" height="358" filterUnits="userSpaceOnUse" color-interpolation-filters="sRGB">
<feFlood flood-opacity="0" result="BackgroundImageFix"/>
<feColorMatrix in="SourceAlpha" type="matrix" values="0 0 0 0 0 0 0 0 0 0 0 0 0 0 0 0 0 0 127 0" result="hardAlpha"/>
<feOffset dy="4"/>
<feGaussianBlur stdDeviation="2"/>
<feComposite in2="hardAlpha" operator="out"/>
<feColorMatrix type="matrix" values="0 0 0 0 0 0 0 0 0 0 0 0 0 0 0 0 0 0 0.25 0"/>
<feBlend mode="normal" in2="BackgroundImageFix" result="effect1_dropShadow_5_34"/>
<feBlend mode="normal" in="SourceGraphic" in2="effect1_dropShadow_5_34" result="shape"/>
</filter>
<clipPath id="clip0_5_34">
<rect width="480" height="800" fill="white"/>
</clipPath>
</defs>
</svg>
